<svg xmlns="http://www.w3.org/2000/svg" width="148" height="64" viewBox="0 0 148 64">
  <g id="Toggle_off" data-name="Toggle off" transform="translate(-0.399 -0.495)">
    <g id="Toggle_Container" data-name="Toggle Container" transform="translate(0.399 0.495)" fill="#fff">
      <path d="M 116.0244216918945 63.5 L 31.9755802154541 63.5 C 27.72613906860352 63.5 23.60408020019531 62.66722106933594 19.72392082214355 61.02481842041016 C 15.97591972351074 59.43833923339844 12.60974025726318 57.16704177856445 9.71891975402832 54.27402114868164 C 6.828120231628418 51.38101959228516 4.558559894561768 48.01232147216797 2.97327995300293 44.26150131225586 C 1.33213996887207 40.37847900390625 0.5 36.25344085693359 0.5 32.00098037719727 C 0.5 27.74803924560547 1.33213996887207 23.62261962890625 2.97327995300293 19.73932075500488 C 4.558559894561768 15.98824024200439 6.828120231628418 12.61933994293213 9.718939781188965 9.72622013092041 C 12.60972023010254 6.833099842071533 15.9758996963501 4.561739921569824 19.72392082214355 2.975219964981079 C 23.60405921936035 1.332780003547668 27.72610092163086 0.5 31.9755802154541 0.5 L 116.0244216918945 0.5 C 120.2739028930664 0.5 124.3959579467773 1.332780003547668 128.2760772705078 2.975219964981079 C 132.0241241455078 4.561739921569824 135.3902740478516 6.833099842071533 138.2810821533203 9.72622013092041 C 141.171875 12.61933994293213 143.4414367675781 15.98824024200439 145.0267181396484 19.73932075500488 C 146.6678619384766 23.62261962890625 147.5 27.74803924560547 147.5 32.00098037719727 C 147.5 36.25344085693359 146.6678619384766 40.37847900390625 145.0267181396484 44.26150131225586 C 143.4414367675781 48.01232147216797 141.171875 51.38103866577148 138.2810821533203 54.27402114868164 C 135.3902587890625 57.16704177856445 132.0240936279297 59.43833923339844 128.2760772705078 61.02481842041016 C 124.3959197998047 62.66722106933594 120.2738800048828 63.5 116.0244216918945 63.5 Z" stroke="none"/>
      <path d="M 116.0244216918945 63 C 120.20654296875 63 124.2630233764648 62.18053817749023 128.0811767578125 60.56436157226562 C 131.7695770263672 59.00312042236328 135.0823364257812 56.76784133911133 137.9273986816406 53.92060089111328 C 140.7724609375 51.07337951660156 143.0060729980469 47.75807952880859 144.566162109375 44.06684112548828 C 146.1811370849609 40.24576187133789 147 36.18621826171875 147 32.00098037719727 C 147 27.81528091430664 146.1811370849609 23.75534057617188 144.566162109375 19.9339599609375 C 143.0060729980469 16.24246025085449 140.7724609375 12.92698001861572 137.9273834228516 10.07962036132812 C 135.0823364257812 7.2322998046875 131.7696075439453 4.996960163116455 128.0811767578125 3.435659885406494 C 124.2630386352539 1.819479942321777 120.2065811157227 1 116.0244216918945 1 L 31.9755802154541 1 C 27.7934398651123 1 23.73695945739746 1.819479942321777 19.9188404083252 3.435659885406494 C 16.23041915893555 4.996960163116455 12.91765975952148 7.2322998046875 10.0726203918457 10.07962036132812 C 7.227540016174316 12.92698001861572 4.993939876556396 16.24246025085449 3.433840036392212 19.9339599609375 C 1.818860054016113 23.75534057617188 1 27.81528091430664 1 32.00098037719727 C 1 36.18621826171875 1.818860054016113 40.24576187133789 3.433840036392212 44.06684112548828 C 4.993939876556396 47.75807952880859 7.227540016174316 51.07337951660156 10.0726203918457 53.92060089111328 C 12.91767978668213 56.76784133911133 16.23041915893555 59.00312042236328 19.91881942749023 60.56436157226562 C 23.73698043823242 62.18053817749023 27.79346084594727 63 31.9755802154541 63 L 116.0244216918945 63 M 116.0244216918945 64 L 31.9755802154541 64 C 14.31544017791748 64 0 49.67285919189453 0 32.00098037719727 C 0 14.32713985443115 14.31544017791748 0 31.9755802154541 0 L 116.0244216918945 0 C 133.6845855712891 0 148 14.32713985443115 148 32.00098037719727 C 148 49.67285919189453 133.6845855712891 64 116.0244216918945 64 Z" stroke="none" fill="#707070"/>
    </g>
    <g id="Toggle_button" data-name="Toggle button" transform="translate(4.399 4.495)" fill="red" stroke="#707070" stroke-width="1">
      <circle cx="28" cy="28" r="28" stroke="none"/>
      <circle cx="28" cy="28" r="27.5" fill="none"/>
    </g>
    <text id="OFF" transform="translate(67.399 12.495)" fill="red" font-size="30" font-family="Lato-Bold, Lato" font-weight="bold"><tspan x="0" y="30">OFF</tspan></text>
  </g>
</svg>
